<svg width="64" height="64" viewBox="0 0 64 64" fill="none" xmlns="http://www.w3.org/2000/svg">
  <rect width="64" height="64" rx="14" fill="#2563EB"/>
  <path d="M23 17C21.8954 17 21 17.8954 21 19V45C21 46.1046 21.8954 47 23 47H41C42.1046 47 43 46.1046 43 45V27.8284C43 27.298 42.7893 26.7893 42.4142 26.4142L33.5858 17.5858C33.2107 17.2107 32.702 17 32.1716 17H23Z" fill="white"/>
  <path d="M32 17V25C32 26.1046 32.8954 27 34 27H42" stroke="#2563EB" stroke-width="2.5" stroke-linecap="round" stroke-linejoin="round"/>
  <path d="M27 32H37" stroke="#2563EB" stroke-width="2.5" stroke-linecap="round"/>
  <path d="M27 37H37" stroke="#2563EB" stroke-width="2.5" stroke-linecap="round"/>
  <path d="M27 42H34" stroke="#2563EB" stroke-width="2.5" stroke-linecap="round"/>
</svg>
